<svg width="445" height="377" viewBox="0 0 445 377" fill="none" xmlns="http://www.w3.org/2000/svg">
<rect width="445" height="377" fill="#151515"/>
<g clip-path="url(#clip0_0_491)">
<path d="M63.12 118.6C58.6 118.6 55.38 117.68 53.46 115.84C51.54 113.96 50.54 110.86 50.46 106.54C50.42 104.86 50.4 102.94 50.4 100.78C50.4 98.58 50.4 96.32 50.4 94C50.4 91.64 50.4 89.36 50.4 87.16C50.4 84.96 50.42 83.02 50.46 81.34C50.54 77.66 51.56 74.76 53.52 72.64C55.52 70.48 58.72 69.4 63.12 69.4C67.44 69.4 70.56 70.34 72.48 72.22C74.44 74.06 75.48 77.12 75.6 81.4C75.64 82.4 75.64 83.5 75.6 84.7C75.6 85.9 75.58 87 75.54 88H66.54C66.58 87.24 66.6 86.36 66.6 85.36C66.6 84.36 66.6 83.36 66.6 82.36C66.64 81.32 66.64 80.44 66.6 79.72C66.52 77.72 65.36 76.72 63.12 76.72C60.76 76.72 59.54 77.72 59.46 79.72C59.38 82.52 59.32 85.6 59.28 88.96C59.24 92.32 59.24 95.68 59.28 99.04C59.32 102.36 59.38 105.42 59.46 108.22C59.54 110.26 60.76 111.28 63.12 111.28C65.52 111.28 66.76 110.26 66.84 108.22C66.88 107.5 66.9 106.64 66.9 105.64C66.9 104.6 66.9 103.58 66.9 102.58C66.9 101.58 66.88 100.72 66.84 100H75.84C75.88 100.96 75.9 102.06 75.9 103.3C75.9 104.5 75.88 105.58 75.84 106.54C75.72 110.86 74.66 113.96 72.66 115.84C70.7 117.68 67.52 118.6 63.12 118.6ZM91.1292 118.6C86.7292 118.6 83.5292 117.68 81.5292 115.84C79.5692 113.96 78.5492 110.86 78.4692 106.54C78.3892 102.62 78.3492 98.44 78.3492 94C78.3492 89.52 78.3892 85.32 78.4692 81.4C78.5492 77.12 79.5692 74.06 81.5292 72.22C83.5292 70.34 86.7292 69.4 91.1292 69.4C95.5292 69.4 98.6892 70.34 100.609 72.22C102.529 74.06 103.569 77.12 103.729 81.4C103.889 85.4 103.969 89.62 103.969 94.06C103.969 98.46 103.889 102.62 103.729 106.54C103.569 110.86 102.529 113.96 100.609 115.84C98.6892 117.68 95.5292 118.6 91.1292 118.6ZM91.1292 111.28C93.4492 111.28 94.6492 110.26 94.7292 108.22C94.8092 106.18 94.8692 103.94 94.9092 101.5C94.9892 99.06 95.0292 96.56 95.0292 94C95.0292 91.4 94.9892 88.88 94.9092 86.44C94.8692 84 94.8092 81.76 94.7292 79.72C94.6492 77.72 93.4492 76.72 91.1292 76.72C88.7692 76.72 87.5492 77.72 87.4692 79.72C87.3892 81.76 87.3292 84 87.2892 86.44C87.2492 88.88 87.2292 91.4 87.2292 94C87.2292 96.56 87.2492 99.06 87.2892 101.5C87.3292 103.94 87.3892 106.18 87.4692 108.22C87.5492 110.26 88.7692 111.28 91.1292 111.28ZM107.588 118V70H122.048L126.008 88.18L126.788 110.08H128.348L129.068 88.18L133.088 70H147.488V118H138.488V103.24L140.228 77.92H138.608L136.088 103.84L132.368 118H122.708L119.048 103.84L116.468 77.92H114.908L116.588 103.24V118H107.588ZM152.295 118V70H173.055V77.92H161.295V89.62H172.455V97.54H161.295V110.08H173.055V118H152.295ZM203.113 118.6C198.593 118.6 195.313 117.68 193.273 115.84C191.233 113.96 190.113 110.88 189.913 106.6C189.913 106.08 189.893 105.7 189.853 105.46C189.853 105.22 189.853 104.98 189.853 104.74C189.853 104.5 189.853 104.12 189.853 103.6C189.893 103.08 189.913 102.28 189.913 101.2C189.953 98.64 190.513 96.6 191.593 95.08C192.673 93.56 193.933 92.24 195.373 91.12C193.773 87.96 192.773 84.92 192.373 82C191.853 78.28 192.493 75.26 194.293 72.94C196.093 70.58 199.113 69.4 203.353 69.4C207.353 69.4 210.233 70.46 211.993 72.58C213.753 74.66 214.413 77.62 213.973 81.46C213.733 83.66 212.973 85.76 211.693 87.76C210.413 89.76 208.533 91.68 206.053 93.52C206.613 94.36 207.173 95.2 207.733 96.04C208.333 96.84 208.953 97.64 209.593 98.44C209.553 97.76 209.493 97.04 209.413 96.28C209.333 95.48 209.233 94.6 209.113 93.64H216.313C216.513 95.48 216.653 97.62 216.733 100.06C216.853 102.5 216.813 104.74 216.613 106.78C217.733 108.02 218.773 109.14 219.733 110.14C220.693 111.14 221.513 111.98 222.193 112.66L216.433 118.24C215.913 117.68 215.373 117.12 214.813 116.56C214.253 115.96 213.693 115.38 213.133 114.82C212.093 116.14 210.753 117.1 209.113 117.7C207.473 118.3 205.473 118.6 203.113 118.6ZM202.213 86.92C203.653 85.88 204.633 84.9 205.153 83.98C205.713 83.02 206.073 82.18 206.233 81.46C206.593 79.62 206.573 78.14 206.173 77.02C205.773 75.86 204.833 75.28 203.353 75.28C202.113 75.28 201.253 75.82 200.773 76.9C200.333 77.94 200.173 79.14 200.293 80.5C200.373 81.46 200.573 82.48 200.893 83.56C201.253 84.64 201.693 85.76 202.213 86.92ZM203.353 111.52C205.593 111.52 207.033 110.6 207.673 108.76C206.273 107.12 204.893 105.44 203.533 103.72C202.173 102 200.893 100.28 199.693 98.56C199.413 98.96 199.173 99.4 198.973 99.88C198.773 100.36 198.653 100.92 198.613 101.56C198.573 102.28 198.533 102.86 198.493 103.3C198.493 103.74 198.493 104.22 198.493 104.74C198.533 105.22 198.573 105.92 198.613 106.84C198.813 109.96 200.393 111.52 203.353 111.52ZM240.185 118V70H251.285C255.765 70 259.025 70.92 261.065 72.76C263.145 74.56 264.185 77.54 264.185 81.7C264.185 82.26 264.185 82.8 264.185 83.32C264.185 83.84 264.165 84.36 264.125 84.88C263.965 87.08 263.465 88.82 262.625 90.1C261.785 91.38 260.485 92.32 258.725 92.92V94.36C260.565 94.96 261.905 95.92 262.745 97.24C263.625 98.56 264.105 100.34 264.185 102.58C264.225 103.78 264.225 105.02 264.185 106.3C264.025 110.46 262.945 113.46 260.945 115.3C258.985 117.1 255.765 118 251.285 118H240.185ZM249.185 89.62H251.285C252.565 89.62 253.525 89.2 254.165 88.36C254.845 87.48 255.185 86.24 255.185 84.64V81.22C255.185 79.02 253.885 77.92 251.285 77.92H249.185V89.62ZM249.185 110.08H251.285C253.885 110.08 255.185 108.78 255.185 106.18V103C255.185 101 254.885 99.6 254.285 98.8C253.685 97.96 252.685 97.54 251.285 97.54H249.185V110.08ZM267.255 118V70H288.015V77.92H276.255V89.62H287.415V97.54H276.255V110.08H288.015V118H267.255ZM50.4 178V130H59.4V178H50.4ZM64.2281 178V130H77.2481L80.8481 145.3L84.1481 170.08H85.7081L84.0281 150.58L83.3081 130H92.0081V178H78.3281L74.7281 162.28L72.2681 137.86H70.5881L72.1481 159.58L72.9281 178H64.2281ZM109 178.6C104.6 178.6 101.46 177.68 99.5803 175.84C97.7403 173.96 96.7203 170.86 96.5203 166.54C96.4803 165.58 96.4603 164.5 96.4603 163.3C96.5003 162.06 96.6003 160.96 96.7603 160H105.22C105.14 161.48 105.08 162.94 105.04 164.38C105.04 165.78 105.1 167.06 105.22 168.22C105.42 170.26 106.68 171.28 109 171.28C110.16 171.28 111.02 171.02 111.58 170.5C112.14 169.98 112.48 169.22 112.6 168.22C112.84 166.18 112.84 164.16 112.6 162.16C112.52 161.32 112.26 160.56 111.82 159.88C111.38 159.2 110.68 158.74 109.72 158.5L104.8 157.24C101.68 156.44 99.5003 155.1 98.2603 153.22C97.0203 151.34 96.3603 148.9 96.2803 145.9C96.2403 144.3 96.2403 142.8 96.2803 141.4C96.4003 138.52 96.8803 136.2 97.7203 134.44C98.6003 132.68 99.9403 131.4 101.74 130.6C103.58 129.8 106 129.4 109 129.4C113.28 129.4 116.38 130.34 118.3 132.22C120.22 134.06 121.26 137.12 121.42 141.4C121.46 142.28 121.46 143.34 121.42 144.58C121.42 145.82 121.38 146.96 121.3 148H112.66C112.74 146.6 112.78 145.22 112.78 143.86C112.82 142.46 112.8 141.08 112.72 139.72C112.68 138.76 112.32 138.02 111.64 137.5C111 136.98 110.12 136.72 109 136.72C107.8 136.72 106.9 136.98 106.3 137.5C105.74 138.02 105.4 138.76 105.28 139.72C105.04 141.76 105.04 143.82 105.28 145.9C105.36 146.7 105.64 147.44 106.12 148.12C106.6 148.76 107.34 149.2 108.34 149.44L112.6 150.46C115.96 151.26 118.28 152.64 119.56 154.6C120.84 156.56 121.54 159.08 121.66 162.16C121.7 162.84 121.7 163.58 121.66 164.38C121.66 165.14 121.64 165.86 121.6 166.54C121.44 170.86 120.4 173.96 118.48 175.84C116.6 177.68 113.44 178.6 109 178.6ZM125.283 178V130H136.863C141.343 130 144.563 130.92 146.523 132.76C148.523 134.56 149.603 137.54 149.763 141.7C149.843 143.38 149.883 144.94 149.883 146.38C149.883 147.82 149.843 149.38 149.763 151.06C149.603 155.22 148.523 158.22 146.523 160.06C144.563 161.86 141.343 162.76 136.863 162.76H134.283V178H125.283ZM134.283 154.84H136.863C139.343 154.84 140.643 153.74 140.763 151.54C140.843 150.06 140.883 148.34 140.883 146.38C140.883 144.42 140.843 142.7 140.763 141.22C140.643 139.02 139.343 137.92 136.863 137.92H134.283V154.84ZM153.408 178V130H162.408V178H153.408ZM167.236 178V130H178.816C183.296 130 186.516 130.92 188.476 132.76C190.476 134.56 191.556 137.54 191.716 141.7C191.756 142.82 191.776 143.8 191.776 144.64C191.816 145.48 191.816 146.32 191.776 147.16C191.776 148 191.756 148.98 191.716 150.1C191.636 152.7 191.196 154.84 190.396 156.52C189.596 158.16 188.376 159.42 186.736 160.3L192.376 178H182.836L178.276 161.8H176.236V178H167.236ZM176.236 153.88H178.816C181.296 153.88 182.596 152.78 182.716 150.58C182.916 147.46 182.916 144.34 182.716 141.22C182.596 139.02 181.296 137.92 178.816 137.92H176.236V153.88ZM195.947 178V130H216.707V137.92H204.947V149.62H216.107V157.54H204.947V170.08H216.707V178H195.947ZM219.736 178V130H231.916C236.436 130 239.696 130.96 241.696 132.88C243.696 134.76 244.736 137.9 244.816 142.3C244.896 145.06 244.936 147.7 244.936 150.22C244.976 152.7 244.976 155.2 244.936 157.72C244.936 160.2 244.896 162.84 244.816 165.64C244.736 170.04 243.696 173.2 241.696 175.12C239.696 177.04 236.436 178 231.916 178H219.736ZM228.736 170.08H231.916C234.436 170.08 235.736 168.96 235.816 166.72C236.056 158.2 236.056 149.7 235.816 141.22C235.736 139.02 234.436 137.92 231.916 137.92H228.736V170.08Z" fill="white"/>
<path d="M53.742 241L48.858 225.864H50.464L54.578 238.888H54.094L58.164 225.864H59.374L63.466 238.888H62.96L67.074 225.864H68.702L63.796 241H62.608L58.538 227.998H59L54.93 241H53.742ZM74.1661 241.22C73.1247 241.22 72.1934 240.985 71.3721 240.516C70.5507 240.047 69.8981 239.401 69.4141 238.58C68.9447 237.759 68.7101 236.835 68.7101 235.808C68.7101 234.796 68.9447 233.887 69.4141 233.08C69.8834 232.259 70.5214 231.613 71.3281 231.144C72.1347 230.675 73.0367 230.44 74.0341 230.44C74.9727 230.44 75.8014 230.653 76.5201 231.078C77.2534 231.503 77.8254 232.097 78.2361 232.86C78.6614 233.608 78.8741 234.473 78.8741 235.456C78.8741 235.573 78.8667 235.713 78.8521 235.874C78.8374 236.021 78.8081 236.197 78.7641 236.402H69.8101V235.082H77.9281L77.3781 235.566C77.3927 234.803 77.2607 234.151 76.9821 233.608C76.7181 233.051 76.3294 232.625 75.8161 232.332C75.3174 232.024 74.7087 231.87 73.9901 231.87C73.2421 231.87 72.5894 232.031 72.0321 232.354C71.4747 232.677 71.0347 233.131 70.7121 233.718C70.4041 234.29 70.2501 234.972 70.2501 235.764C70.2501 236.556 70.4114 237.253 70.7341 237.854C71.0714 238.455 71.5334 238.925 72.1201 239.262C72.7214 239.599 73.4107 239.768 74.1881 239.768C74.8187 239.768 75.3981 239.658 75.9261 239.438C76.4541 239.203 76.9014 238.859 77.2681 238.404L78.2581 239.416C77.7741 239.988 77.1727 240.435 76.4541 240.758C75.7501 241.066 74.9874 241.22 74.1661 241.22ZM80.5189 230.198L81.7729 227.756L82.3229 227.624C82.2643 227.771 82.1836 227.888 82.0809 227.976C81.9783 228.064 81.8536 228.108 81.7069 228.108C81.4283 228.108 81.1716 227.998 80.9369 227.778C80.7169 227.558 80.6069 227.279 80.6069 226.942C80.6069 226.575 80.7316 226.267 80.9809 226.018C81.2303 225.769 81.5309 225.644 81.8829 225.644C82.2203 225.644 82.5136 225.769 82.7629 226.018C83.0269 226.267 83.1589 226.575 83.1589 226.942C83.1589 227.089 83.1296 227.265 83.0709 227.47C83.0269 227.661 82.9243 227.91 82.7629 228.218L81.4429 230.704L80.5189 230.198ZM85.0757 241V230.66H86.6157V241H85.0757ZM86.6157 234.972L85.9777 234.686C85.9777 233.381 86.293 232.347 86.9237 231.584C87.569 230.821 88.449 230.44 89.5637 230.44C90.077 230.44 90.5463 230.535 90.9717 230.726C91.397 230.902 91.793 231.188 92.1597 231.584L91.1477 232.662C90.8983 232.383 90.6197 232.185 90.3117 232.068C90.0183 231.951 89.681 231.892 89.2997 231.892C88.5077 231.892 87.8623 232.156 87.3637 232.684C86.865 233.197 86.6157 233.96 86.6157 234.972ZM98.2071 241.22C97.1658 241.22 96.2344 240.985 95.4131 240.516C94.5918 240.047 93.9391 239.401 93.4551 238.58C92.9858 237.759 92.7511 236.835 92.7511 235.808C92.7511 234.796 92.9858 233.887 93.4551 233.08C93.9244 232.259 94.5624 231.613 95.3691 231.144C96.1758 230.675 97.0778 230.44 98.0751 230.44C99.0138 230.44 99.8424 230.653 100.561 231.078C101.294 231.503 101.866 232.097 102.277 232.86C102.702 233.608 102.915 234.473 102.915 235.456C102.915 235.573 102.908 235.713 102.893 235.874C102.878 236.021 102.849 236.197 102.805 236.402H93.8511V235.082H101.969L101.419 235.566C101.434 234.803 101.302 234.151 101.023 233.608C100.759 233.051 100.37 232.625 99.8571 232.332C99.3584 232.024 98.7498 231.87 98.0311 231.87C97.2831 231.87 96.6304 232.031 96.0731 232.354C95.5158 232.677 95.0758 233.131 94.7531 233.718C94.4451 234.29 94.2911 234.972 94.2911 235.764C94.2911 236.556 94.4524 237.253 94.7751 237.854C95.1124 238.455 95.5744 238.925 96.1611 239.262C96.7624 239.599 97.4518 239.768 98.2291 239.768C98.8598 239.768 99.4391 239.658 99.9671 239.438C100.495 239.203 100.942 238.859 101.309 238.404L102.299 239.416C101.815 239.988 101.214 240.435 100.495 240.758C99.7911 241.066 99.0284 241.22 98.2071 241.22ZM114.772 241.22C113.73 241.22 112.799 240.985 111.978 240.516C111.156 240.047 110.504 239.401 110.02 238.58C109.55 237.759 109.316 236.835 109.316 235.808C109.316 234.796 109.55 233.887 110.02 233.08C110.489 232.259 111.127 231.613 111.934 231.144C112.74 230.675 113.642 230.44 114.64 230.44C115.578 230.44 116.407 230.653 117.126 231.078C117.859 231.503 118.431 232.097 118.842 232.86C119.267 233.608 119.48 234.473 119.48 235.456C119.48 235.573 119.472 235.713 119.458 235.874C119.443 236.021 119.414 236.197 119.37 236.402H110.416V235.082H118.534L117.984 235.566C117.998 234.803 117.866 234.151 117.588 233.608C117.324 233.051 116.935 232.625 116.422 232.332C115.923 232.024 115.314 231.87 114.596 231.87C113.848 231.87 113.195 232.031 112.638 232.354C112.08 232.677 111.64 233.131 111.318 233.718C111.01 234.29 110.856 234.972 110.856 235.764C110.856 236.556 111.017 237.253 111.34 237.854C111.677 238.455 112.139 238.925 112.726 239.262C113.327 239.599 114.016 239.768 114.794 239.768C115.424 239.768 116.004 239.658 116.532 239.438C117.06 239.203 117.507 238.859 117.874 238.404L118.864 239.416C118.38 239.988 117.778 240.435 117.06 240.758C116.356 241.066 115.593 241.22 114.772 241.22ZM128.532 241L125.078 236.292L124.748 236.028L120.59 230.66H122.504L125.716 234.884L126.024 235.148L130.424 241H128.532ZM120.414 241L124.77 235.324L125.628 236.468L122.24 241H120.414ZM126.134 236.006L125.254 234.884L128.422 230.66H130.248L126.134 236.006ZM136.834 241.22C135.822 241.22 134.906 240.985 134.084 240.516C133.278 240.032 132.632 239.379 132.148 238.558C131.679 237.737 131.444 236.82 131.444 235.808C131.444 234.796 131.679 233.887 132.148 233.08C132.632 232.259 133.278 231.613 134.084 231.144C134.906 230.675 135.822 230.44 136.834 230.44C137.612 230.44 138.338 230.587 139.012 230.88C139.687 231.173 140.259 231.584 140.728 232.112L139.716 233.146C139.364 232.75 138.939 232.449 138.44 232.244C137.942 232.024 137.406 231.914 136.834 231.914C136.101 231.914 135.448 232.083 134.876 232.42C134.304 232.757 133.857 233.219 133.534 233.806C133.212 234.378 133.05 235.045 133.05 235.808C133.05 236.556 133.212 237.231 133.534 237.832C133.857 238.419 134.304 238.881 134.876 239.218C135.448 239.555 136.101 239.724 136.834 239.724C137.421 239.724 137.964 239.621 138.462 239.416C138.961 239.196 139.386 238.888 139.738 238.492L140.772 239.526C140.288 240.069 139.702 240.487 139.012 240.78C138.338 241.073 137.612 241.22 136.834 241.22ZM142.933 241V230.66H144.495V241H142.933ZM143.703 228.416C143.41 228.416 143.16 228.313 142.955 228.108C142.75 227.888 142.647 227.631 142.647 227.338C142.647 227.03 142.75 226.773 142.955 226.568C143.16 226.363 143.41 226.26 143.703 226.26C144.026 226.26 144.282 226.363 144.473 226.568C144.678 226.773 144.781 227.03 144.781 227.338C144.781 227.631 144.678 227.888 144.473 228.108C144.282 228.313 144.026 228.416 143.703 228.416ZM149.223 241V226.304H150.763V241H149.223ZM146.605 232.046V230.66H153.359V232.046H146.605ZM159.889 241.22C158.847 241.22 157.916 240.985 157.095 240.516C156.273 240.047 155.621 239.401 155.137 238.58C154.667 237.759 154.433 236.835 154.433 235.808C154.433 234.796 154.667 233.887 155.137 233.08C155.606 232.259 156.244 231.613 157.051 231.144C157.857 230.675 158.759 230.44 159.757 230.44C160.695 230.44 161.524 230.653 162.243 231.078C162.976 231.503 163.548 232.097 163.959 232.86C164.384 233.608 164.597 234.473 164.597 235.456C164.597 235.573 164.589 235.713 164.575 235.874C164.56 236.021 164.531 236.197 164.487 236.402H155.533V235.082H163.651L163.101 235.566C163.115 234.803 162.983 234.151 162.705 233.608C162.441 233.051 162.052 232.625 161.539 232.332C161.04 232.024 160.431 231.87 159.713 231.87C158.965 231.87 158.312 232.031 157.755 232.354C157.197 232.677 156.757 233.131 156.435 233.718C156.127 234.29 155.973 234.972 155.973 235.764C155.973 236.556 156.134 237.253 156.457 237.854C156.794 238.455 157.256 238.925 157.843 239.262C158.444 239.599 159.133 239.768 159.911 239.768C160.541 239.768 161.121 239.658 161.649 239.438C162.177 239.203 162.624 238.859 162.991 238.404L163.981 239.416C163.497 239.988 162.895 240.435 162.177 240.758C161.473 241.066 160.71 241.22 159.889 241.22ZM171.353 241.22C170.399 241.22 169.541 240.985 168.779 240.516C168.016 240.047 167.407 239.409 166.953 238.602C166.513 237.781 166.293 236.864 166.293 235.852C166.293 234.825 166.513 233.909 166.953 233.102C167.407 232.281 168.016 231.635 168.779 231.166C169.541 230.682 170.399 230.44 171.353 230.44C172.13 230.44 172.834 230.594 173.465 230.902C174.095 231.21 174.616 231.65 175.027 232.222C175.452 232.779 175.701 233.439 175.775 234.202V237.436C175.687 238.184 175.437 238.844 175.027 239.416C174.631 239.973 174.117 240.413 173.487 240.736C172.856 241.059 172.145 241.22 171.353 241.22ZM171.617 239.746C172.335 239.746 172.966 239.585 173.509 239.262C174.051 238.925 174.477 238.463 174.785 237.876C175.093 237.275 175.247 236.593 175.247 235.83C175.247 235.053 175.085 234.371 174.763 233.784C174.455 233.197 174.029 232.735 173.487 232.398C172.944 232.061 172.313 231.892 171.595 231.892C170.876 231.892 170.238 232.061 169.681 232.398C169.123 232.735 168.683 233.205 168.361 233.806C168.053 234.393 167.899 235.067 167.899 235.83C167.899 236.593 168.053 237.275 168.361 237.876C168.683 238.463 169.123 238.925 169.681 239.262C170.253 239.585 170.898 239.746 171.617 239.746ZM176.699 241H175.159V238.228L175.467 235.676L175.159 233.19V225.424H176.699V241ZM186.154 241V226.304H187.694V241H186.154ZM183.536 232.046V230.66H190.29V232.046H183.536ZM196.732 241.22C195.735 241.22 194.826 240.978 194.004 240.494C193.198 240.01 192.552 239.357 192.068 238.536C191.599 237.715 191.364 236.798 191.364 235.786C191.364 234.789 191.599 233.887 192.068 233.08C192.552 232.273 193.198 231.635 194.004 231.166C194.826 230.682 195.735 230.44 196.732 230.44C197.744 230.44 198.654 230.675 199.46 231.144C200.267 231.613 200.905 232.259 201.374 233.08C201.858 233.887 202.1 234.789 202.1 235.786C202.1 236.813 201.858 237.737 201.374 238.558C200.905 239.365 200.267 240.01 199.46 240.494C198.654 240.978 197.744 241.22 196.732 241.22ZM196.732 239.724C197.466 239.724 198.111 239.555 198.668 239.218C199.24 238.881 199.688 238.411 200.01 237.81C200.348 237.209 200.516 236.534 200.516 235.786C200.516 235.038 200.348 234.378 200.01 233.806C199.688 233.219 199.24 232.757 198.668 232.42C198.111 232.083 197.466 231.914 196.732 231.914C196.014 231.914 195.368 232.083 194.796 232.42C194.224 232.757 193.777 233.219 193.454 233.806C193.132 234.378 192.97 235.038 192.97 235.786C192.97 236.549 193.132 237.231 193.454 237.832C193.777 238.419 194.224 238.881 194.796 239.218C195.368 239.555 196.014 239.724 196.732 239.724ZM212.159 241L208.177 230.66H209.783L212.929 239.24L212.357 239.262L215.481 230.66H216.383L219.507 239.262L218.935 239.24L222.059 230.66H223.687L219.683 241H218.781L215.591 232.53H216.251L213.083 241H212.159ZM230.121 241.22C229.08 241.22 228.148 240.985 227.327 240.516C226.506 240.047 225.853 239.401 225.369 238.58C224.9 237.759 224.665 236.835 224.665 235.808C224.665 234.796 224.9 233.887 225.369 233.08C225.838 232.259 226.476 231.613 227.283 231.144C228.09 230.675 228.992 230.44 229.989 230.44C230.928 230.44 231.756 230.653 232.475 231.078C233.208 231.503 233.78 232.097 234.191 232.86C234.616 233.608 234.829 234.473 234.829 235.456C234.829 235.573 234.822 235.713 234.807 235.874C234.792 236.021 234.763 236.197 234.719 236.402H225.765V235.082H233.883L233.333 235.566C233.348 234.803 233.216 234.151 232.937 233.608C232.673 233.051 232.284 232.625 231.771 232.332C231.272 232.024 230.664 231.87 229.945 231.87C229.197 231.87 228.544 232.031 227.987 232.354C227.43 232.677 226.99 233.131 226.667 233.718C226.359 234.29 226.205 234.972 226.205 235.764C226.205 236.556 226.366 237.253 226.689 237.854C227.026 238.455 227.488 238.925 228.075 239.262C228.676 239.599 229.366 239.768 230.143 239.768C230.774 239.768 231.353 239.658 231.881 239.438C232.409 239.203 232.856 238.859 233.223 238.404L234.213 239.416C233.729 239.988 233.128 240.435 232.409 240.758C231.705 241.066 230.942 241.22 230.121 241.22ZM237.185 241V225.424H238.725V241H237.185ZM246.555 241.22C245.543 241.22 244.626 240.985 243.805 240.516C242.998 240.032 242.353 239.379 241.869 238.558C241.4 237.737 241.165 236.82 241.165 235.808C241.165 234.796 241.4 233.887 241.869 233.08C242.353 232.259 242.998 231.613 243.805 231.144C244.626 230.675 245.543 230.44 246.555 230.44C247.332 230.44 248.058 230.587 248.733 230.88C249.408 231.173 249.98 231.584 250.449 232.112L249.437 233.146C249.085 232.75 248.66 232.449 248.161 232.244C247.662 232.024 247.127 231.914 246.555 231.914C245.822 231.914 245.169 232.083 244.597 232.42C244.025 232.757 243.578 233.219 243.255 233.806C242.932 234.378 242.771 235.045 242.771 235.808C242.771 236.556 242.932 237.231 243.255 237.832C243.578 238.419 244.025 238.881 244.597 239.218C245.169 239.555 245.822 239.724 246.555 239.724C247.142 239.724 247.684 239.621 248.183 239.416C248.682 239.196 249.107 238.888 249.459 238.492L250.493 239.526C250.009 240.069 249.422 240.487 248.733 240.78C248.058 241.073 247.332 241.22 246.555 241.22ZM257.146 241.22C256.149 241.22 255.24 240.978 254.418 240.494C253.612 240.01 252.966 239.357 252.482 238.536C252.013 237.715 251.778 236.798 251.778 235.786C251.778 234.789 252.013 233.887 252.482 233.08C252.966 232.273 253.612 231.635 254.418 231.166C255.24 230.682 256.149 230.44 257.146 230.44C258.158 230.44 259.068 230.675 259.874 231.144C260.681 231.613 261.319 232.259 261.788 233.08C262.272 233.887 262.514 234.789 262.514 235.786C262.514 236.813 262.272 237.737 261.788 238.558C261.319 239.365 260.681 240.01 259.874 240.494C259.068 240.978 258.158 241.22 257.146 241.22ZM257.146 239.724C257.88 239.724 258.525 239.555 259.082 239.218C259.654 238.881 260.102 238.411 260.424 237.81C260.762 237.209 260.93 236.534 260.93 235.786C260.93 235.038 260.762 234.378 260.424 233.806C260.102 233.219 259.654 232.757 259.082 232.42C258.525 232.083 257.88 231.914 257.146 231.914C256.428 231.914 255.782 232.083 255.21 232.42C254.638 232.757 254.191 233.219 253.868 233.806C253.546 234.378 253.384 235.038 253.384 235.786C253.384 236.549 253.546 237.231 253.868 237.832C254.191 238.419 254.638 238.881 255.21 239.218C255.782 239.555 256.428 239.724 257.146 239.724ZM264.964 241V230.66H266.504V241H264.964ZM272.07 241V234.664C272.07 233.813 271.814 233.139 271.3 232.64C270.787 232.127 270.142 231.87 269.364 231.87C268.836 231.87 268.352 231.987 267.912 232.222C267.487 232.442 267.142 232.757 266.878 233.168C266.629 233.579 266.504 234.07 266.504 234.642L265.8 234.356C265.8 233.564 265.976 232.875 266.328 232.288C266.68 231.701 267.15 231.247 267.736 230.924C268.338 230.601 269.012 230.44 269.76 230.44C270.494 230.44 271.146 230.601 271.718 230.924C272.305 231.247 272.767 231.701 273.104 232.288C273.456 232.875 273.632 233.571 273.632 234.378V241H272.07ZM279.198 241V234.664C279.198 233.813 278.942 233.139 278.428 232.64C277.915 232.127 277.262 231.87 276.47 231.87C275.957 231.87 275.48 231.987 275.04 232.222C274.615 232.442 274.27 232.757 274.006 233.168C273.757 233.579 273.632 234.07 273.632 234.642L272.708 234.356C272.752 233.564 272.958 232.875 273.324 232.288C273.706 231.701 274.197 231.247 274.798 230.924C275.414 230.601 276.089 230.44 276.822 230.44C277.556 230.44 278.216 230.601 278.802 230.924C279.404 231.247 279.873 231.701 280.21 232.288C280.562 232.875 280.738 233.571 280.738 234.378V241H279.198ZM288.408 241.22C287.367 241.22 286.436 240.985 285.614 240.516C284.793 240.047 284.14 239.401 283.656 238.58C283.187 237.759 282.952 236.835 282.952 235.808C282.952 234.796 283.187 233.887 283.656 233.08C284.126 232.259 284.764 231.613 285.57 231.144C286.377 230.675 287.279 230.44 288.276 230.44C289.215 230.44 290.044 230.653 290.762 231.078C291.496 231.503 292.068 232.097 292.478 232.86C292.904 233.608 293.116 234.473 293.116 235.456C293.116 235.573 293.109 235.713 293.094 235.874C293.08 236.021 293.05 236.197 293.006 236.402H284.052V235.082H292.17L291.62 235.566C291.635 234.803 291.503 234.151 291.224 233.608C290.96 233.051 290.572 232.625 290.058 232.332C289.56 232.024 288.951 231.87 288.232 231.87C287.484 231.87 286.832 232.031 286.274 232.354C285.717 232.677 285.277 233.131 284.954 233.718C284.646 234.29 284.492 234.972 284.492 235.764C284.492 236.556 284.654 237.253 284.976 237.854C285.314 238.455 285.776 238.925 286.362 239.262C286.964 239.599 287.653 239.768 288.43 239.768C289.061 239.768 289.64 239.658 290.168 239.438C290.696 239.203 291.144 238.859 291.51 238.404L292.5 239.416C292.016 239.988 291.415 240.435 290.696 240.758C289.992 241.066 289.23 241.22 288.408 241.22ZM303.653 241.044L299.121 230.66H300.815L304.467 239.328H303.829L307.679 230.66H309.395L304.533 241.044H303.653ZM300.837 245.356L303.675 239.482L304.533 241.044L302.531 245.356H300.837ZM315.455 241.22C314.458 241.22 313.548 240.978 312.727 240.494C311.92 240.01 311.275 239.357 310.791 238.536C310.322 237.715 310.087 236.798 310.087 235.786C310.087 234.789 310.322 233.887 310.791 233.08C311.275 232.273 311.92 231.635 312.727 231.166C313.548 230.682 314.458 230.44 315.455 230.44C316.467 230.44 317.376 230.675 318.183 231.144C318.99 231.613 319.628 232.259 320.097 233.08C320.581 233.887 320.823 234.789 320.823 235.786C320.823 236.813 320.581 237.737 320.097 238.558C319.628 239.365 318.99 240.01 318.183 240.494C317.376 240.978 316.467 241.22 315.455 241.22ZM315.455 239.724C316.188 239.724 316.834 239.555 317.391 239.218C317.963 238.881 318.41 238.411 318.733 237.81C319.07 237.209 319.239 236.534 319.239 235.786C319.239 235.038 319.07 234.378 318.733 233.806C318.41 233.219 317.963 232.757 317.391 232.42C316.834 232.083 316.188 231.914 315.455 231.914C314.736 231.914 314.091 232.083 313.519 232.42C312.947 232.757 312.5 233.219 312.177 233.806C311.854 234.378 311.693 235.038 311.693 235.786C311.693 236.549 311.854 237.231 312.177 237.832C312.5 238.419 312.947 238.881 313.519 239.218C314.091 239.555 314.736 239.724 315.455 239.724ZM327.365 241.22C326.529 241.22 325.781 241.029 325.121 240.648C324.461 240.252 323.94 239.717 323.559 239.042C323.192 238.367 323.009 237.575 323.009 236.666V230.66H324.571V236.6C324.571 237.231 324.681 237.781 324.901 238.25C325.136 238.719 325.466 239.086 325.891 239.35C326.316 239.614 326.808 239.746 327.365 239.746C328.23 239.746 328.912 239.46 329.411 238.888C329.924 238.316 330.181 237.553 330.181 236.6V230.66H331.721V236.666C331.721 237.561 331.538 238.353 331.171 239.042C330.804 239.731 330.291 240.267 329.631 240.648C328.971 241.029 328.216 241.22 327.365 241.22ZM340.928 241V226.304H342.468V241H340.928ZM338.31 232.046V230.66H345.064V232.046H338.31ZM351.506 241.22C350.508 241.22 349.599 240.978 348.778 240.494C347.971 240.01 347.326 239.357 346.842 238.536C346.372 237.715 346.138 236.798 346.138 235.786C346.138 234.789 346.372 233.887 346.842 233.08C347.326 232.273 347.971 231.635 348.778 231.166C349.599 230.682 350.508 230.44 351.506 230.44C352.518 230.44 353.427 230.675 354.234 231.144C355.04 231.613 355.678 232.259 356.148 233.08C356.632 233.887 356.874 234.789 356.874 235.786C356.874 236.813 356.632 237.737 356.148 238.558C355.678 239.365 355.04 240.01 354.234 240.494C353.427 240.978 352.518 241.22 351.506 241.22ZM351.506 239.724C352.239 239.724 352.884 239.555 353.442 239.218C354.014 238.881 354.461 238.411 354.784 237.81C355.121 237.209 355.29 236.534 355.29 235.786C355.29 235.038 355.121 234.378 354.784 233.806C354.461 233.219 354.014 232.757 353.442 232.42C352.884 232.083 352.239 231.914 351.506 231.914C350.787 231.914 350.142 232.083 349.57 232.42C348.998 232.757 348.55 233.219 348.228 233.806C347.905 234.378 347.744 235.038 347.744 235.786C347.744 236.549 347.905 237.231 348.228 237.832C348.55 238.419 348.998 238.881 349.57 239.218C350.142 239.555 350.787 239.724 351.506 239.724ZM368.736 241.22C367.739 241.22 366.83 240.978 366.008 240.494C365.202 240.01 364.556 239.357 364.072 238.536C363.603 237.715 363.368 236.798 363.368 235.786C363.368 234.789 363.603 233.887 364.072 233.08C364.556 232.273 365.202 231.635 366.008 231.166C366.83 230.682 367.739 230.44 368.736 230.44C369.748 230.44 370.658 230.675 371.464 231.144C372.271 231.613 372.909 232.259 373.378 233.08C373.862 233.887 374.104 234.789 374.104 235.786C374.104 236.813 373.862 237.737 373.378 238.558C372.909 239.365 372.271 240.01 371.464 240.494C370.658 240.978 369.748 241.22 368.736 241.22ZM368.736 239.724C369.47 239.724 370.115 239.555 370.672 239.218C371.244 238.881 371.692 238.411 372.014 237.81C372.352 237.209 372.52 236.534 372.52 235.786C372.52 235.038 372.352 234.378 372.014 233.806C371.692 233.219 371.244 232.757 370.672 232.42C370.115 232.083 369.47 231.914 368.736 231.914C368.018 231.914 367.372 232.083 366.8 232.42C366.228 232.757 365.781 233.219 365.458 233.806C365.136 234.378 364.974 235.038 364.974 235.786C364.974 236.549 365.136 237.231 365.458 237.832C365.781 238.419 366.228 238.881 366.8 239.218C367.372 239.555 368.018 239.724 368.736 239.724ZM380.646 241.22C379.81 241.22 379.062 241.029 378.402 240.648C377.742 240.252 377.222 239.717 376.84 239.042C376.474 238.367 376.29 237.575 376.29 236.666V230.66H377.852V236.6C377.852 237.231 377.962 237.781 378.182 238.25C378.417 238.719 378.747 239.086 379.172 239.35C379.598 239.614 380.089 239.746 380.646 239.746C381.512 239.746 382.194 239.46 382.692 238.888C383.206 238.316 383.462 237.553 383.462 236.6V230.66H385.002V236.666C385.002 237.561 384.819 238.353 384.452 239.042C384.086 239.731 383.572 240.267 382.912 240.648C382.252 241.029 381.497 241.22 380.646 241.22ZM387.876 241V230.66H389.416V241H387.876ZM389.416 234.972L388.778 234.686C388.778 233.381 389.094 232.347 389.724 231.584C390.37 230.821 391.25 230.44 392.364 230.44C392.878 230.44 393.347 230.535 393.772 230.726C394.198 230.902 394.594 231.188 394.96 231.584L393.948 232.662C393.699 232.383 393.42 232.185 393.112 232.068C392.819 231.951 392.482 231.892 392.1 231.892C391.308 231.892 390.663 232.156 390.164 232.684C389.666 233.197 389.416 233.96 389.416 234.972ZM53.83 277.576C52.7887 277.576 51.8573 277.378 51.036 276.982C50.2293 276.601 49.5767 276.058 49.078 275.354L50.09 274.342C50.5007 274.899 51.0213 275.332 51.652 275.64C52.2827 275.948 53.0233 276.102 53.874 276.102C55.0473 276.102 55.9787 275.787 56.668 275.156C57.372 274.525 57.724 273.667 57.724 272.582V270.008L58.032 267.654L57.724 265.322V262.66H59.264V272.582C59.264 273.579 59.0367 274.452 58.582 275.2C58.1273 275.948 57.4893 276.527 56.668 276.938C55.8613 277.363 54.9153 277.576 53.83 277.576ZM53.94 272.89C52.9867 272.89 52.1287 272.663 51.366 272.208C50.6033 271.753 50.002 271.13 49.562 270.338C49.122 269.546 48.902 268.651 48.902 267.654C48.902 266.657 49.1147 265.769 49.54 264.992C49.98 264.2 50.5813 263.577 51.344 263.122C52.1067 262.667 52.9647 262.44 53.918 262.44C54.7247 262.44 55.4433 262.594 56.074 262.902C56.7193 263.21 57.2327 263.65 57.614 264.222C58.01 264.779 58.252 265.439 58.34 266.202V269.128C58.252 269.876 58.01 270.536 57.614 271.108C57.218 271.665 56.7047 272.105 56.074 272.428C55.4433 272.736 54.732 272.89 53.94 272.89ZM54.226 271.416C54.9447 271.416 55.568 271.262 56.096 270.954C56.6387 270.646 57.0567 270.213 57.35 269.656C57.658 269.084 57.812 268.417 57.812 267.654C57.812 266.906 57.658 266.253 57.35 265.696C57.0567 265.139 56.6387 264.699 56.096 264.376C55.5533 264.053 54.9227 263.892 54.204 263.892C53.4853 263.892 52.84 264.053 52.268 264.376C51.7107 264.699 51.2707 265.139 50.948 265.696C50.64 266.253 50.486 266.906 50.486 267.654C50.486 268.387 50.6473 269.04 50.97 269.612C51.2927 270.184 51.7327 270.631 52.29 270.954C52.8473 271.262 53.4927 271.416 54.226 271.416ZM66.8547 273.22C65.872 273.22 64.992 272.985 64.2147 272.516C63.4374 272.032 62.8214 271.387 62.3667 270.58C61.9267 269.773 61.7067 268.864 61.7067 267.852C61.7067 266.825 61.9267 265.909 62.3667 265.102C62.8214 264.281 63.4374 263.635 64.2147 263.166C64.992 262.682 65.8647 262.44 66.8327 262.44C67.6247 262.44 68.3287 262.601 68.9447 262.924C69.5754 263.232 70.0814 263.672 70.4627 264.244C70.8587 264.801 71.1007 265.454 71.1887 266.202V269.436C71.1007 270.184 70.8587 270.844 70.4627 271.416C70.0814 271.988 69.5754 272.435 68.9447 272.758C68.3287 273.066 67.632 273.22 66.8547 273.22ZM67.0967 271.746C68.1674 271.746 69.0254 271.387 69.6707 270.668C70.3307 269.949 70.6607 269.003 70.6607 267.83C70.6607 267.053 70.5067 266.371 70.1987 265.784C69.9054 265.183 69.4874 264.721 68.9447 264.398C68.4167 264.061 67.7934 263.892 67.0747 263.892C66.3414 263.892 65.6887 264.061 65.1167 264.398C64.5594 264.735 64.112 265.205 63.7747 265.806C63.452 266.393 63.2907 267.067 63.2907 267.83C63.2907 268.593 63.452 269.267 63.7747 269.854C64.112 270.441 64.5667 270.903 65.1387 271.24C65.7107 271.577 66.3634 271.746 67.0967 271.746ZM70.5727 273V270.228L70.8807 267.676L70.5727 265.19V262.66H72.1127V273H70.5727ZM75.2358 273V257.424H76.7758V273H75.2358ZM79.8979 273V257.424H81.4379V273H79.8979ZM89.334 273.22C88.2927 273.22 87.3614 272.985 86.54 272.516C85.7187 272.047 85.066 271.401 84.582 270.58C84.1127 269.759 83.878 268.835 83.878 267.808C83.878 266.796 84.1127 265.887 84.582 265.08C85.0514 264.259 85.6894 263.613 86.496 263.144C87.3027 262.675 88.2047 262.44 89.202 262.44C90.1407 262.44 90.9694 262.653 91.688 263.078C92.4214 263.503 92.9934 264.097 93.404 264.86C93.8294 265.608 94.042 266.473 94.042 267.456C94.042 267.573 94.0347 267.713 94.02 267.874C94.0054 268.021 93.976 268.197 93.932 268.402H84.978V267.082H93.096L92.546 267.566C92.5607 266.803 92.4287 266.151 92.15 265.608C91.886 265.051 91.4974 264.625 90.984 264.332C90.4854 264.024 89.8767 263.87 89.158 263.87C88.41 263.87 87.7574 264.031 87.2 264.354C86.6427 264.677 86.2027 265.131 85.88 265.718C85.572 266.29 85.418 266.972 85.418 267.764C85.418 268.556 85.5794 269.253 85.902 269.854C86.2394 270.455 86.7014 270.925 87.288 271.262C87.8894 271.599 88.5787 271.768 89.356 271.768C89.9867 271.768 90.566 271.658 91.094 271.438C91.622 271.203 92.0694 270.859 92.436 270.404L93.426 271.416C92.942 271.988 92.3407 272.435 91.622 272.758C90.918 273.066 90.1554 273.22 89.334 273.22ZM96.3979 273V262.66H97.9379V273H96.3979ZM97.9379 266.972L97.2999 266.686C97.2999 265.381 97.6153 264.347 98.2459 263.584C98.8913 262.821 99.7713 262.44 100.886 262.44C101.399 262.44 101.869 262.535 102.294 262.726C102.719 262.902 103.115 263.188 103.482 263.584L102.47 264.662C102.221 264.383 101.942 264.185 101.634 264.068C101.341 263.951 101.003 263.892 100.622 263.892C99.8299 263.892 99.1846 264.156 98.6859 264.684C98.1873 265.197 97.9379 265.96 97.9379 266.972ZM108.338 273.044L103.806 262.66H105.5L109.152 271.328H108.514L112.364 262.66H114.08L109.218 273.044H108.338ZM105.522 277.356L108.36 271.482L109.218 273.044L107.216 277.356H105.522ZM125.314 273.22C124.331 273.22 123.451 272.985 122.674 272.516C121.896 272.032 121.28 271.387 120.826 270.58C120.386 269.773 120.166 268.864 120.166 267.852C120.166 266.825 120.386 265.909 120.826 265.102C121.28 264.281 121.896 263.635 122.674 263.166C123.451 262.682 124.324 262.44 125.292 262.44C126.084 262.44 126.788 262.601 127.404 262.924C128.034 263.232 128.54 263.672 128.922 264.244C129.318 264.801 129.56 265.454 129.648 266.202V269.436C129.56 270.184 129.318 270.844 128.922 271.416C128.54 271.988 128.034 272.435 127.404 272.758C126.788 273.066 126.091 273.22 125.314 273.22ZM125.556 271.746C126.626 271.746 127.484 271.387 128.13 270.668C128.79 269.949 129.12 269.003 129.12 267.83C129.12 267.053 128.966 266.371 128.658 265.784C128.364 265.183 127.946 264.721 127.404 264.398C126.876 264.061 126.252 263.892 125.534 263.892C124.8 263.892 124.148 264.061 123.576 264.398C123.018 264.735 122.571 265.205 122.234 265.806C121.911 266.393 121.75 267.067 121.75 267.83C121.75 268.593 121.911 269.267 122.234 269.854C122.571 270.441 123.026 270.903 123.598 271.24C124.17 271.577 124.822 271.746 125.556 271.746ZM129.032 273V270.228L129.34 267.676L129.032 265.19V262.66H130.572V273H129.032ZM141.219 273V266.928C141.219 266.019 140.947 265.285 140.405 264.728C139.877 264.156 139.173 263.87 138.293 263.87C137.691 263.87 137.163 264.002 136.709 264.266C136.254 264.53 135.895 264.889 135.631 265.344C135.367 265.799 135.235 266.319 135.235 266.906L134.531 266.51C134.531 265.733 134.714 265.036 135.081 264.42C135.447 263.804 135.939 263.32 136.555 262.968C137.185 262.616 137.904 262.44 138.711 262.44C139.503 262.44 140.207 262.631 140.823 263.012C141.439 263.393 141.915 263.907 142.253 264.552C142.605 265.197 142.781 265.901 142.781 266.664V273H141.219ZM133.695 273V262.66H135.235V273H133.695ZM150.062 273.22C149.108 273.22 148.25 272.985 147.488 272.516C146.725 272.047 146.116 271.409 145.662 270.602C145.222 269.781 145.002 268.864 145.002 267.852C145.002 266.825 145.222 265.909 145.662 265.102C146.116 264.281 146.725 263.635 147.488 263.166C148.25 262.682 149.108 262.44 150.062 262.44C150.839 262.44 151.543 262.594 152.174 262.902C152.804 263.21 153.325 263.65 153.736 264.222C154.161 264.779 154.41 265.439 154.484 266.202V269.436C154.396 270.184 154.146 270.844 153.736 271.416C153.34 271.973 152.826 272.413 152.196 272.736C151.565 273.059 150.854 273.22 150.062 273.22ZM150.326 271.746C151.044 271.746 151.675 271.585 152.218 271.262C152.76 270.925 153.186 270.463 153.494 269.876C153.802 269.275 153.956 268.593 153.956 267.83C153.956 267.053 153.794 266.371 153.472 265.784C153.164 265.197 152.738 264.735 152.196 264.398C151.653 264.061 151.022 263.892 150.304 263.892C149.585 263.892 148.947 264.061 148.39 264.398C147.832 264.735 147.392 265.205 147.07 265.806C146.762 266.393 146.608 267.067 146.608 267.83C146.608 268.593 146.762 269.275 147.07 269.876C147.392 270.463 147.832 270.925 148.39 271.262C148.962 271.585 149.607 271.746 150.326 271.746ZM155.408 273H153.868V270.228L154.176 267.676L153.868 265.19V257.424H155.408V273ZM166.425 273.22C165.868 273.22 165.333 273.147 164.819 273C164.306 272.839 163.837 272.619 163.411 272.34C163.001 272.061 162.641 271.731 162.333 271.35L163.323 270.338C163.734 270.837 164.196 271.211 164.709 271.46C165.237 271.695 165.824 271.812 166.469 271.812C167.159 271.812 167.694 271.68 168.075 271.416C168.471 271.152 168.669 270.785 168.669 270.316C168.669 269.876 168.53 269.531 168.251 269.282C167.973 269.033 167.613 268.835 167.173 268.688C166.748 268.541 166.293 268.402 165.809 268.27C165.325 268.123 164.863 267.947 164.423 267.742C163.983 267.522 163.624 267.221 163.345 266.84C163.081 266.459 162.949 265.96 162.949 265.344C162.949 264.757 163.089 264.251 163.367 263.826C163.661 263.386 164.071 263.049 164.599 262.814C165.142 262.565 165.78 262.44 166.513 262.44C167.291 262.44 167.995 262.579 168.625 262.858C169.256 263.137 169.762 263.547 170.143 264.09L169.153 265.08C168.845 264.684 168.457 264.383 167.987 264.178C167.533 263.958 167.019 263.848 166.447 263.848C165.787 263.848 165.281 263.98 164.929 264.244C164.592 264.493 164.423 264.823 164.423 265.234C164.423 265.63 164.563 265.945 164.841 266.18C165.12 266.4 165.472 266.583 165.897 266.73C166.337 266.862 166.799 267.001 167.283 267.148C167.767 267.28 168.229 267.463 168.669 267.698C169.109 267.918 169.461 268.226 169.725 268.622C170.004 269.003 170.143 269.524 170.143 270.184C170.143 271.108 169.806 271.849 169.131 272.406C168.471 272.949 167.569 273.22 166.425 273.22ZM177.356 273.22C176.314 273.22 175.383 272.985 174.562 272.516C173.74 272.047 173.088 271.401 172.604 270.58C172.134 269.759 171.9 268.835 171.9 267.808C171.9 266.796 172.134 265.887 172.604 265.08C173.073 264.259 173.711 263.613 174.518 263.144C175.324 262.675 176.226 262.44 177.224 262.44C178.162 262.44 178.991 262.653 179.71 263.078C180.443 263.503 181.015 264.097 181.426 264.86C181.851 265.608 182.064 266.473 182.064 267.456C182.064 267.573 182.056 267.713 182.042 267.874C182.027 268.021 181.998 268.197 181.954 268.402H173V267.082H181.118L180.568 267.566C180.582 266.803 180.45 266.151 180.172 265.608C179.908 265.051 179.519 264.625 179.006 264.332C178.507 264.024 177.898 263.87 177.18 263.87C176.432 263.87 175.779 264.031 175.222 264.354C174.664 264.677 174.224 265.131 173.902 265.718C173.594 266.29 173.44 266.972 173.44 267.764C173.44 268.556 173.601 269.253 173.924 269.854C174.261 270.455 174.723 270.925 175.31 271.262C175.911 271.599 176.6 271.768 177.378 271.768C178.008 271.768 178.588 271.658 179.116 271.438C179.644 271.203 180.091 270.859 180.458 270.404L181.448 271.416C180.964 271.988 180.362 272.435 179.644 272.758C178.94 273.066 178.177 273.22 177.356 273.22ZM189.193 273.22C188.152 273.22 187.221 272.985 186.399 272.516C185.578 272.047 184.925 271.401 184.441 270.58C183.972 269.759 183.737 268.835 183.737 267.808C183.737 266.796 183.972 265.887 184.441 265.08C184.911 264.259 185.549 263.613 186.355 263.144C187.162 262.675 188.064 262.44 189.061 262.44C190 262.44 190.829 262.653 191.547 263.078C192.281 263.503 192.853 264.097 193.263 264.86C193.689 265.608 193.901 266.473 193.901 267.456C193.901 267.573 193.894 267.713 193.879 267.874C193.865 268.021 193.835 268.197 193.791 268.402H184.837V267.082H192.955L192.405 267.566C192.42 266.803 192.288 266.151 192.009 265.608C191.745 265.051 191.357 264.625 190.843 264.332C190.345 264.024 189.736 263.87 189.017 263.87C188.269 263.87 187.617 264.031 187.059 264.354C186.502 264.677 186.062 265.131 185.739 265.718C185.431 266.29 185.277 266.972 185.277 267.764C185.277 268.556 185.439 269.253 185.761 269.854C186.099 270.455 186.561 270.925 187.147 271.262C187.749 271.599 188.438 271.768 189.215 271.768C189.846 271.768 190.425 271.658 190.953 271.438C191.481 271.203 191.929 270.859 192.295 270.404L193.285 271.416C192.801 271.988 192.2 272.435 191.481 272.758C190.777 273.066 190.015 273.22 189.193 273.22ZM208.508 273V266.928C208.508 266.019 208.237 265.285 207.694 264.728C207.166 264.156 206.462 263.87 205.582 263.87C204.981 263.87 204.453 264.002 203.998 264.266C203.543 264.53 203.184 264.889 202.92 265.344C202.656 265.799 202.524 266.319 202.524 266.906L201.82 266.51C201.82 265.733 202.003 265.036 202.37 264.42C202.737 263.804 203.228 263.32 203.844 262.968C204.475 262.616 205.193 262.44 206 262.44C206.792 262.44 207.496 262.623 208.112 262.99C208.728 263.342 209.205 263.833 209.542 264.464C209.894 265.095 210.07 265.828 210.07 266.664V273H208.508ZM200.984 273V257.424H202.524V273H200.984ZM217.637 273.22C216.639 273.22 215.73 272.978 214.909 272.494C214.102 272.01 213.457 271.357 212.973 270.536C212.503 269.715 212.269 268.798 212.269 267.786C212.269 266.789 212.503 265.887 212.973 265.08C213.457 264.273 214.102 263.635 214.909 263.166C215.73 262.682 216.639 262.44 217.637 262.44C218.649 262.44 219.558 262.675 220.365 263.144C221.171 263.613 221.809 264.259 222.279 265.08C222.763 265.887 223.005 266.789 223.005 267.786C223.005 268.813 222.763 269.737 222.279 270.558C221.809 271.365 221.171 272.01 220.365 272.494C219.558 272.978 218.649 273.22 217.637 273.22ZM217.637 271.724C218.37 271.724 219.015 271.555 219.573 271.218C220.145 270.881 220.592 270.411 220.915 269.81C221.252 269.209 221.421 268.534 221.421 267.786C221.421 267.038 221.252 266.378 220.915 265.806C220.592 265.219 220.145 264.757 219.573 264.42C219.015 264.083 218.37 263.914 217.637 263.914C216.918 263.914 216.273 264.083 215.701 264.42C215.129 264.757 214.681 265.219 214.359 265.806C214.036 266.378 213.875 267.038 213.875 267.786C213.875 268.549 214.036 269.231 214.359 269.832C214.681 270.419 215.129 270.881 215.701 271.218C216.273 271.555 216.918 271.724 217.637 271.724ZM227.993 273L224.011 262.66H225.617L228.763 271.24L228.191 271.262L231.315 262.66H232.217L235.341 271.262L234.769 271.24L237.893 262.66H239.521L235.517 273H234.615L231.425 264.53H232.085L228.917 273H227.993ZM250.937 273.22C249.94 273.22 249.031 272.978 248.209 272.494C247.403 272.01 246.757 271.357 246.273 270.536C245.804 269.715 245.569 268.798 245.569 267.786C245.569 266.789 245.804 265.887 246.273 265.08C246.757 264.273 247.403 263.635 248.209 263.166C249.031 262.682 249.94 262.44 250.937 262.44C251.949 262.44 252.859 262.675 253.665 263.144C254.472 263.613 255.11 264.259 255.579 265.08C256.063 265.887 256.305 266.789 256.305 267.786C256.305 268.813 256.063 269.737 255.579 270.558C255.11 271.365 254.472 272.01 253.665 272.494C252.859 272.978 251.949 273.22 250.937 273.22ZM250.937 271.724C251.671 271.724 252.316 271.555 252.873 271.218C253.445 270.881 253.893 270.411 254.215 269.81C254.553 269.209 254.721 268.534 254.721 267.786C254.721 267.038 254.553 266.378 254.215 265.806C253.893 265.219 253.445 264.757 252.873 264.42C252.316 264.083 251.671 263.914 250.937 263.914C250.219 263.914 249.573 264.083 249.001 264.42C248.429 264.757 247.982 265.219 247.659 265.806C247.337 266.378 247.175 267.038 247.175 267.786C247.175 268.549 247.337 269.231 247.659 269.832C247.982 270.419 248.429 270.881 249.001 271.218C249.573 271.555 250.219 271.724 250.937 271.724ZM262.847 273.22C262.011 273.22 261.263 273.029 260.603 272.648C259.943 272.252 259.423 271.717 259.041 271.042C258.675 270.367 258.491 269.575 258.491 268.666V262.66H260.053V268.6C260.053 269.231 260.163 269.781 260.383 270.25C260.618 270.719 260.948 271.086 261.373 271.35C261.799 271.614 262.29 271.746 262.847 271.746C263.713 271.746 264.395 271.46 264.893 270.888C265.407 270.316 265.663 269.553 265.663 268.6V262.66H267.203V268.666C267.203 269.561 267.02 270.353 266.653 271.042C266.287 271.731 265.773 272.267 265.113 272.648C264.453 273.029 263.698 273.22 262.847 273.22ZM270.078 273V262.66H271.618V273H270.078ZM271.618 266.972L270.98 266.686C270.98 265.381 271.295 264.347 271.926 263.584C272.571 262.821 273.451 262.44 274.566 262.44C275.079 262.44 275.548 262.535 275.974 262.726C276.399 262.902 276.795 263.188 277.162 263.584L276.15 264.662C275.9 264.383 275.622 264.185 275.314 264.068C275.02 263.951 274.683 263.892 274.302 263.892C273.51 263.892 272.864 264.156 272.366 264.684C271.867 265.197 271.618 265.96 271.618 266.972ZM288.622 273.22C287.61 273.22 286.693 272.985 285.872 272.516C285.065 272.032 284.42 271.379 283.936 270.558C283.466 269.737 283.232 268.82 283.232 267.808C283.232 266.796 283.466 265.887 283.936 265.08C284.42 264.259 285.065 263.613 285.872 263.144C286.693 262.675 287.61 262.44 288.622 262.44C289.399 262.44 290.125 262.587 290.8 262.88C291.474 263.173 292.046 263.584 292.516 264.112L291.504 265.146C291.152 264.75 290.726 264.449 290.228 264.244C289.729 264.024 289.194 263.914 288.622 263.914C287.888 263.914 287.236 264.083 286.664 264.42C286.092 264.757 285.644 265.219 285.322 265.806C284.999 266.378 284.838 267.045 284.838 267.808C284.838 268.556 284.999 269.231 285.322 269.832C285.644 270.419 286.092 270.881 286.664 271.218C287.236 271.555 287.888 271.724 288.622 271.724C289.208 271.724 289.751 271.621 290.25 271.416C290.748 271.196 291.174 270.888 291.526 270.492L292.56 271.526C292.076 272.069 291.489 272.487 290.8 272.78C290.125 273.073 289.399 273.22 288.622 273.22ZM299.213 273.22C298.216 273.22 297.306 272.978 296.485 272.494C295.678 272.01 295.033 271.357 294.549 270.536C294.08 269.715 293.845 268.798 293.845 267.786C293.845 266.789 294.08 265.887 294.549 265.08C295.033 264.273 295.678 263.635 296.485 263.166C297.306 262.682 298.216 262.44 299.213 262.44C300.225 262.44 301.134 262.675 301.941 263.144C302.748 263.613 303.386 264.259 303.855 265.08C304.339 265.887 304.581 266.789 304.581 267.786C304.581 268.813 304.339 269.737 303.855 270.558C303.386 271.365 302.748 272.01 301.941 272.494C301.134 272.978 300.225 273.22 299.213 273.22ZM299.213 271.724C299.946 271.724 300.592 271.555 301.149 271.218C301.721 270.881 302.168 270.411 302.491 269.81C302.828 269.209 302.997 268.534 302.997 267.786C302.997 267.038 302.828 266.378 302.491 265.806C302.168 265.219 301.721 264.757 301.149 264.42C300.592 264.083 299.946 263.914 299.213 263.914C298.494 263.914 297.849 264.083 297.277 264.42C296.705 264.757 296.258 265.219 295.935 265.806C295.612 266.378 295.451 267.038 295.451 267.786C295.451 268.549 295.612 269.231 295.935 269.832C296.258 270.419 296.705 270.881 297.277 271.218C297.849 271.555 298.494 271.724 299.213 271.724ZM307.031 273V257.424H308.571V273H307.031ZM311.693 273V257.424H313.233V273H311.693ZM321.129 273.22C320.088 273.22 319.156 272.985 318.335 272.516C317.514 272.047 316.861 271.401 316.377 270.58C315.908 269.759 315.673 268.835 315.673 267.808C315.673 266.796 315.908 265.887 316.377 265.08C316.846 264.259 317.484 263.613 318.291 263.144C319.098 262.675 320 262.44 320.997 262.44C321.936 262.44 322.764 262.653 323.483 263.078C324.216 263.503 324.788 264.097 325.199 264.86C325.624 265.608 325.837 266.473 325.837 267.456C325.837 267.573 325.83 267.713 325.815 267.874C325.8 268.021 325.771 268.197 325.727 268.402H316.773V267.082H324.891L324.341 267.566C324.356 266.803 324.224 266.151 323.945 265.608C323.681 265.051 323.292 264.625 322.779 264.332C322.28 264.024 321.672 263.87 320.953 263.87C320.205 263.87 319.552 264.031 318.995 264.354C318.438 264.677 317.998 265.131 317.675 265.718C317.367 266.29 317.213 266.972 317.213 267.764C317.213 268.556 317.374 269.253 317.697 269.854C318.034 270.455 318.496 270.925 319.083 271.262C319.684 271.599 320.374 271.768 321.151 271.768C321.782 271.768 322.361 271.658 322.889 271.438C323.417 271.203 323.864 270.859 324.231 270.404L325.221 271.416C324.737 271.988 324.136 272.435 323.417 272.758C322.713 273.066 321.95 273.22 321.129 273.22ZM332.901 273.22C331.889 273.22 330.972 272.985 330.151 272.516C329.344 272.032 328.699 271.379 328.215 270.558C327.746 269.737 327.511 268.82 327.511 267.808C327.511 266.796 327.746 265.887 328.215 265.08C328.699 264.259 329.344 263.613 330.151 263.144C330.972 262.675 331.889 262.44 332.901 262.44C333.678 262.44 334.404 262.587 335.079 262.88C335.754 263.173 336.326 263.584 336.795 264.112L335.783 265.146C335.431 264.75 335.006 264.449 334.507 264.244C334.008 264.024 333.473 263.914 332.901 263.914C332.168 263.914 331.515 264.083 330.943 264.42C330.371 264.757 329.924 265.219 329.601 265.806C329.278 266.378 329.117 267.045 329.117 267.808C329.117 268.556 329.278 269.231 329.601 269.832C329.924 270.419 330.371 270.881 330.943 271.218C331.515 271.555 332.168 271.724 332.901 271.724C333.488 271.724 334.03 271.621 334.529 271.416C335.028 271.196 335.453 270.888 335.805 270.492L336.839 271.526C336.355 272.069 335.768 272.487 335.079 272.78C334.404 273.073 333.678 273.22 332.901 273.22ZM340.52 273V258.304H342.06V273H340.52ZM337.902 264.046V262.66H344.656V264.046H337.902ZM346.777 273V262.66H348.339V273H346.777ZM347.547 260.416C347.254 260.416 347.004 260.313 346.799 260.108C346.594 259.888 346.491 259.631 346.491 259.338C346.491 259.03 346.594 258.773 346.799 258.568C347.004 258.363 347.254 258.26 347.547 258.26C347.87 258.26 348.126 258.363 348.317 258.568C348.522 258.773 348.625 259.03 348.625 259.338C348.625 259.631 348.522 259.888 348.317 260.108C348.126 260.313 347.87 260.416 347.547 260.416ZM356.146 273.22C355.149 273.22 354.24 272.978 353.418 272.494C352.612 272.01 351.966 271.357 351.482 270.536C351.013 269.715 350.778 268.798 350.778 267.786C350.778 266.789 351.013 265.887 351.482 265.08C351.966 264.273 352.612 263.635 353.418 263.166C354.24 262.682 355.149 262.44 356.146 262.44C357.158 262.44 358.068 262.675 358.874 263.144C359.681 263.613 360.319 264.259 360.788 265.08C361.272 265.887 361.514 266.789 361.514 267.786C361.514 268.813 361.272 269.737 360.788 270.558C360.319 271.365 359.681 272.01 358.874 272.494C358.068 272.978 357.158 273.22 356.146 273.22ZM356.146 271.724C356.88 271.724 357.525 271.555 358.082 271.218C358.654 270.881 359.102 270.411 359.424 269.81C359.762 269.209 359.93 268.534 359.93 267.786C359.93 267.038 359.762 266.378 359.424 265.806C359.102 265.219 358.654 264.757 358.082 264.42C357.525 264.083 356.88 263.914 356.146 263.914C355.428 263.914 354.782 264.083 354.21 264.42C353.638 264.757 353.191 265.219 352.868 265.806C352.546 266.378 352.384 267.038 352.384 267.786C352.384 268.549 352.546 269.231 352.868 269.832C353.191 270.419 353.638 270.881 354.21 271.218C354.782 271.555 355.428 271.724 356.146 271.724ZM371.488 273V266.928C371.488 266.019 371.217 265.285 370.674 264.728C370.146 264.156 369.442 263.87 368.562 263.87C367.961 263.87 367.433 264.002 366.978 264.266C366.524 264.53 366.164 264.889 365.9 265.344C365.636 265.799 365.504 266.319 365.504 266.906L364.8 266.51C364.8 265.733 364.984 265.036 365.35 264.42C365.717 263.804 366.208 263.32 366.824 262.968C367.455 262.616 368.174 262.44 368.98 262.44C369.772 262.44 370.476 262.631 371.092 263.012C371.708 263.393 372.185 263.907 372.522 264.552C372.874 265.197 373.05 265.901 373.05 266.664V273H371.488ZM363.964 273V262.66H365.504V273H363.964ZM379.099 273.22C378.542 273.22 378.006 273.147 377.493 273C376.98 272.839 376.51 272.619 376.085 272.34C375.674 272.061 375.315 271.731 375.007 271.35L375.997 270.338C376.408 270.837 376.87 271.211 377.383 271.46C377.911 271.695 378.498 271.812 379.143 271.812C379.832 271.812 380.368 271.68 380.749 271.416C381.145 271.152 381.343 270.785 381.343 270.316C381.343 269.876 381.204 269.531 380.925 269.282C380.646 269.033 380.287 268.835 379.847 268.688C379.422 268.541 378.967 268.402 378.483 268.27C377.999 268.123 377.537 267.947 377.097 267.742C376.657 267.522 376.298 267.221 376.019 266.84C375.755 266.459 375.623 265.96 375.623 265.344C375.623 264.757 375.762 264.251 376.041 263.826C376.334 263.386 376.745 263.049 377.273 262.814C377.816 262.565 378.454 262.44 379.187 262.44C379.964 262.44 380.668 262.579 381.299 262.858C381.93 263.137 382.436 263.547 382.817 264.09L381.827 265.08C381.519 264.684 381.13 264.383 380.661 264.178C380.206 263.958 379.693 263.848 379.121 263.848C378.461 263.848 377.955 263.98 377.603 264.244C377.266 264.493 377.097 264.823 377.097 265.234C377.097 265.63 377.236 265.945 377.515 266.18C377.794 266.4 378.146 266.583 378.571 266.73C379.011 266.862 379.473 267.001 379.957 267.148C380.441 267.28 380.903 267.463 381.343 267.698C381.783 267.918 382.135 268.226 382.399 268.622C382.678 269.003 382.817 269.524 382.817 270.184C382.817 271.108 382.48 271.849 381.805 272.406C381.145 272.949 380.243 273.22 379.099 273.22ZM49.562 305V294.66H51.124V305H49.562ZM50.332 292.416C50.0387 292.416 49.7893 292.313 49.584 292.108C49.3787 291.888 49.276 291.631 49.276 291.338C49.276 291.03 49.3787 290.773 49.584 290.568C49.7893 290.363 50.0387 290.26 50.332 290.26C50.6547 290.26 50.9113 290.363 51.102 290.568C51.3073 290.773 51.41 291.03 51.41 291.338C51.41 291.631 51.3073 291.888 51.102 292.108C50.9113 292.313 50.6547 292.416 50.332 292.416ZM61.7696 305V298.928C61.7696 298.019 61.4983 297.285 60.9556 296.728C60.4276 296.156 59.7236 295.87 58.8436 295.87C58.2423 295.87 57.7143 296.002 57.2596 296.266C56.8049 296.53 56.4456 296.889 56.1816 297.344C55.9176 297.799 55.7856 298.319 55.7856 298.906L55.0816 298.51C55.0816 297.733 55.2649 297.036 55.6316 296.42C55.9983 295.804 56.4896 295.32 57.1056 294.968C57.7363 294.616 58.4549 294.44 59.2616 294.44C60.0536 294.44 60.7576 294.631 61.3736 295.012C61.9896 295.393 62.4663 295.907 62.8036 296.552C63.1556 297.197 63.3316 297.901 63.3316 298.664V305H61.7696ZM54.2456 305V294.66H55.7856V305H54.2456ZM67.6015 305V292.9C67.6015 292.181 67.7555 291.543 68.0635 290.986C68.3862 290.429 68.8262 289.996 69.3835 289.688C69.9555 289.365 70.6008 289.204 71.3195 289.204C71.8768 289.204 72.3682 289.307 72.7935 289.512C73.2188 289.703 73.6075 289.974 73.9595 290.326L72.9475 291.338C72.7128 291.103 72.4635 290.935 72.1995 290.832C71.9502 290.715 71.6568 290.656 71.3195 290.656C70.6302 290.656 70.0948 290.861 69.7135 291.272C69.3468 291.668 69.1635 292.225 69.1635 292.944V305H67.6015ZM65.0055 296.046V294.66H72.6175V296.046H65.0055ZM75.3003 305V289.424H76.8403V305H75.3003ZM84.0544 305.22C83.2184 305.22 82.4704 305.029 81.8104 304.648C81.1504 304.252 80.6297 303.717 80.2484 303.042C79.8817 302.367 79.6984 301.575 79.6984 300.666V294.66H81.2604V300.6C81.2604 301.231 81.3704 301.781 81.5904 302.25C81.8251 302.719 82.1551 303.086 82.5804 303.35C83.0057 303.614 83.4971 303.746 84.0544 303.746C84.9197 303.746 85.6017 303.46 86.1004 302.888C86.6137 302.316 86.8704 301.553 86.8704 300.6V294.66H88.4104V300.666C88.4104 301.561 88.2271 302.353 87.8604 303.042C87.4937 303.731 86.9804 304.267 86.3204 304.648C85.6604 305.029 84.9051 305.22 84.0544 305.22ZM96.0587 305.22C95.0173 305.22 94.086 304.985 93.2647 304.516C92.4433 304.047 91.7907 303.401 91.3067 302.58C90.8373 301.759 90.6027 300.835 90.6027 299.808C90.6027 298.796 90.8373 297.887 91.3067 297.08C91.776 296.259 92.414 295.613 93.2207 295.144C94.0273 294.675 94.9293 294.44 95.9267 294.44C96.8653 294.44 97.694 294.653 98.4127 295.078C99.146 295.503 99.718 296.097 100.129 296.86C100.554 297.608 100.767 298.473 100.767 299.456C100.767 299.573 100.759 299.713 100.745 299.874C100.73 300.021 100.701 300.197 100.657 300.402H91.7027V299.082H99.8207L99.2707 299.566C99.2853 298.803 99.1533 298.151 98.8747 297.608C98.6107 297.051 98.222 296.625 97.7087 296.332C97.21 296.024 96.6013 295.87 95.8827 295.87C95.1347 295.87 94.482 296.031 93.9247 296.354C93.3673 296.677 92.9273 297.131 92.6047 297.718C92.2967 298.29 92.1427 298.972 92.1427 299.764C92.1427 300.556 92.304 301.253 92.6267 301.854C92.964 302.455 93.426 302.925 94.0127 303.262C94.614 303.599 95.3033 303.768 96.0807 303.768C96.7113 303.768 97.2907 303.658 97.8187 303.438C98.3467 303.203 98.794 302.859 99.1607 302.404L100.151 303.416C99.6667 303.988 99.0653 304.435 98.3467 304.758C97.6427 305.066 96.88 305.22 96.0587 305.22ZM110.647 305V298.928C110.647 298.019 110.375 297.285 109.833 296.728C109.305 296.156 108.601 295.87 107.721 295.87C107.119 295.87 106.591 296.002 106.137 296.266C105.682 296.53 105.323 296.889 105.059 297.344C104.795 297.799 104.663 298.319 104.663 298.906L103.959 298.51C103.959 297.733 104.142 297.036 104.509 296.42C104.875 295.804 105.367 295.32 105.983 294.968C106.613 294.616 107.332 294.44 108.139 294.44C108.931 294.44 109.635 294.631 110.251 295.012C110.867 295.393 111.343 295.907 111.681 296.552C112.033 297.197 112.209 297.901 112.209 298.664V305H110.647ZM103.123 305V294.66H104.663V305H103.123ZM119.797 305.22C118.785 305.22 117.869 304.985 117.047 304.516C116.241 304.032 115.595 303.379 115.111 302.558C114.642 301.737 114.407 300.82 114.407 299.808C114.407 298.796 114.642 297.887 115.111 297.08C115.595 296.259 116.241 295.613 117.047 295.144C117.869 294.675 118.785 294.44 119.797 294.44C120.575 294.44 121.301 294.587 121.975 294.88C122.65 295.173 123.222 295.584 123.691 296.112L122.679 297.146C122.327 296.75 121.902 296.449 121.403 296.244C120.905 296.024 120.369 295.914 119.797 295.914C119.064 295.914 118.411 296.083 117.839 296.42C117.267 296.757 116.82 297.219 116.497 297.806C116.175 298.378 116.013 299.045 116.013 299.808C116.013 300.556 116.175 301.231 116.497 301.832C116.82 302.419 117.267 302.881 117.839 303.218C118.411 303.555 119.064 303.724 119.797 303.724C120.384 303.724 120.927 303.621 121.425 303.416C121.924 303.196 122.349 302.888 122.701 302.492L123.735 303.526C123.251 304.069 122.665 304.487 121.975 304.78C121.301 305.073 120.575 305.22 119.797 305.22ZM130.477 305.22C129.435 305.22 128.504 304.985 127.683 304.516C126.861 304.047 126.209 303.401 125.725 302.58C125.255 301.759 125.021 300.835 125.021 299.808C125.021 298.796 125.255 297.887 125.725 297.08C126.194 296.259 126.832 295.613 127.639 295.144C128.445 294.675 129.347 294.44 130.345 294.44C131.283 294.44 132.112 294.653 132.831 295.078C133.564 295.503 134.136 296.097 134.547 296.86C134.972 297.608 135.185 298.473 135.185 299.456C135.185 299.573 135.177 299.713 135.163 299.874C135.148 300.021 135.119 300.197 135.075 300.402H126.121V299.082H134.239L133.689 299.566C133.703 298.803 133.571 298.151 133.293 297.608C133.029 297.051 132.64 296.625 132.127 296.332C131.628 296.024 131.019 295.87 130.301 295.87C129.553 295.87 128.9 296.031 128.343 296.354C127.785 296.677 127.345 297.131 127.023 297.718C126.715 298.29 126.561 298.972 126.561 299.764C126.561 300.556 126.722 301.253 127.045 301.854C127.382 302.455 127.844 302.925 128.431 303.262C129.032 303.599 129.721 303.768 130.499 303.768C131.129 303.768 131.709 303.658 132.237 303.438C132.765 303.203 133.212 302.859 133.579 302.404L134.569 303.416C134.085 303.988 133.483 304.435 132.765 304.758C132.061 305.066 131.298 305.22 130.477 305.22ZM145.721 305.044L141.189 294.66H142.883L146.535 303.328H145.897L149.747 294.66H151.463L146.601 305.044H145.721ZM142.905 309.356L145.743 303.482L146.601 305.044L144.599 309.356H142.905ZM157.523 305.22C156.526 305.22 155.617 304.978 154.795 304.494C153.989 304.01 153.343 303.357 152.859 302.536C152.39 301.715 152.155 300.798 152.155 299.786C152.155 298.789 152.39 297.887 152.859 297.08C153.343 296.273 153.989 295.635 154.795 295.166C155.617 294.682 156.526 294.44 157.523 294.44C158.535 294.44 159.445 294.675 160.251 295.144C161.058 295.613 161.696 296.259 162.165 297.08C162.649 297.887 162.891 298.789 162.891 299.786C162.891 300.813 162.649 301.737 162.165 302.558C161.696 303.365 161.058 304.01 160.251 304.494C159.445 304.978 158.535 305.22 157.523 305.22ZM157.523 303.724C158.257 303.724 158.902 303.555 159.459 303.218C160.031 302.881 160.479 302.411 160.801 301.81C161.139 301.209 161.307 300.534 161.307 299.786C161.307 299.038 161.139 298.378 160.801 297.806C160.479 297.219 160.031 296.757 159.459 296.42C158.902 296.083 158.257 295.914 157.523 295.914C156.805 295.914 156.159 296.083 155.587 296.42C155.015 296.757 154.568 297.219 154.245 297.806C153.923 298.378 153.761 299.038 153.761 299.786C153.761 300.549 153.923 301.231 154.245 301.832C154.568 302.419 155.015 302.881 155.587 303.218C156.159 303.555 156.805 303.724 157.523 303.724ZM169.433 305.22C168.597 305.22 167.849 305.029 167.189 304.648C166.529 304.252 166.009 303.717 165.627 303.042C165.261 302.367 165.077 301.575 165.077 300.666V294.66H166.639V300.6C166.639 301.231 166.749 301.781 166.969 302.25C167.204 302.719 167.534 303.086 167.959 303.35C168.385 303.614 168.876 303.746 169.433 303.746C170.299 303.746 170.981 303.46 171.479 302.888C171.993 302.316 172.249 301.553 172.249 300.6V294.66H173.789V300.666C173.789 301.561 173.606 302.353 173.239 303.042C172.873 303.731 172.359 304.267 171.699 304.648C171.039 305.029 170.284 305.22 169.433 305.22ZM178.292 305.22C177.925 305.22 177.624 305.095 177.39 304.846C177.155 304.597 177.038 304.296 177.038 303.944C177.038 303.592 177.155 303.299 177.39 303.064C177.624 302.815 177.925 302.69 178.292 302.69C178.644 302.69 178.937 302.815 179.172 303.064C179.406 303.299 179.524 303.592 179.524 303.944C179.524 304.296 179.406 304.597 179.172 304.846C178.937 305.095 178.644 305.22 178.292 305.22Z" fill="white"/>
</g>
<defs>
<clipPath id="clip0_0_491">
<rect width="350" height="248" fill="white" transform="translate(48 65)"/>
</clipPath>
</defs>
</svg>
